<mxfile host="app.diagrams.net" modified="2020-09-22T23:28:20.161Z" agent="5.0 (Windows NT 10.0; Win64; x64) AppleWebKit/537.36 (KHTML, like Gecko) Chrome/84.0.4147.135 Safari/537.36 OPR/70.0.3728.189" etag="p26G9kusAKt-2KzNfnhS" version="13.7.4" type="github">
  <diagram id="8Z_XSHnfkKL7UiJFcr5X" name="Page-1">
    <mxGraphModel dx="1382" dy="795" grid="0" gridSize="10" guides="1" tooltips="1" connect="1" arrows="1" fold="1" page="1" pageScale="1" pageWidth="827" pageHeight="1169" math="0" shadow="0">
      <root>
        <mxCell id="0" />
        <mxCell id="1" parent="0" />
        <mxCell id="OpxA1rUQGxUV8h2yl8yL-4" style="edgeStyle=orthogonalEdgeStyle;rounded=0;orthogonalLoop=1;jettySize=auto;html=1;entryX=0.5;entryY=0;entryDx=0;entryDy=0;strokeColor=#FF6392;fontColor=#5AA9E6;" edge="1" parent="1" source="OpxA1rUQGxUV8h2yl8yL-1" target="OpxA1rUQGxUV8h2yl8yL-3">
          <mxGeometry relative="1" as="geometry" />
        </mxCell>
        <mxCell id="OpxA1rUQGxUV8h2yl8yL-1" value="Inicio" style="ellipse;whiteSpace=wrap;html=1;fillColor=#FFE45E;strokeColor=#FF6392;fontColor=#5AA9E6;" vertex="1" parent="1">
          <mxGeometry x="354" y="10" width="120" height="60" as="geometry" />
        </mxCell>
        <mxCell id="OpxA1rUQGxUV8h2yl8yL-6" style="edgeStyle=orthogonalEdgeStyle;rounded=0;orthogonalLoop=1;jettySize=auto;html=1;entryX=0.5;entryY=0;entryDx=0;entryDy=0;strokeColor=#FF6392;fontColor=#5AA9E6;" edge="1" parent="1" source="OpxA1rUQGxUV8h2yl8yL-3" target="OpxA1rUQGxUV8h2yl8yL-5">
          <mxGeometry relative="1" as="geometry" />
        </mxCell>
        <mxCell id="OpxA1rUQGxUV8h2yl8yL-3" value="con = 0 ; Entero" style="rounded=0;whiteSpace=wrap;html=1;fillColor=#FFE45E;strokeColor=#FF6392;fontColor=#5AA9E6;" vertex="1" parent="1">
          <mxGeometry x="354" y="110" width="120" height="60" as="geometry" />
        </mxCell>
        <mxCell id="OpxA1rUQGxUV8h2yl8yL-8" style="edgeStyle=orthogonalEdgeStyle;rounded=0;orthogonalLoop=1;jettySize=auto;html=1;entryX=0.5;entryY=0;entryDx=0;entryDy=0;strokeColor=#FF6392;fontColor=#5AA9E6;" edge="1" parent="1" source="OpxA1rUQGxUV8h2yl8yL-5" target="OpxA1rUQGxUV8h2yl8yL-7">
          <mxGeometry relative="1" as="geometry" />
        </mxCell>
        <mxCell id="OpxA1rUQGxUV8h2yl8yL-14" style="edgeStyle=orthogonalEdgeStyle;rounded=0;orthogonalLoop=1;jettySize=auto;html=1;entryX=1;entryY=0.5;entryDx=0;entryDy=0;strokeColor=#FF6392;fontColor=#5AA9E6;" edge="1" parent="1" source="OpxA1rUQGxUV8h2yl8yL-5" target="OpxA1rUQGxUV8h2yl8yL-13">
          <mxGeometry relative="1" as="geometry">
            <Array as="points">
              <mxPoint x="554" y="245" />
              <mxPoint x="554" y="605" />
            </Array>
          </mxGeometry>
        </mxCell>
        <mxCell id="OpxA1rUQGxUV8h2yl8yL-5" value="Mientras con &amp;lt; 100" style="shape=hexagon;html=1;whiteSpace=wrap;perimeter=hexagonPerimeter;rounded=0;fillColor=#FFE45E;strokeColor=#FF6392;fontColor=#5AA9E6;" vertex="1" parent="1">
          <mxGeometry x="294" y="220" width="240" height="50" as="geometry" />
        </mxCell>
        <mxCell id="OpxA1rUQGxUV8h2yl8yL-10" style="edgeStyle=orthogonalEdgeStyle;rounded=0;orthogonalLoop=1;jettySize=auto;html=1;strokeColor=#FF6392;fontColor=#5AA9E6;" edge="1" parent="1" source="OpxA1rUQGxUV8h2yl8yL-7" target="OpxA1rUQGxUV8h2yl8yL-9">
          <mxGeometry relative="1" as="geometry" />
        </mxCell>
        <mxCell id="OpxA1rUQGxUV8h2yl8yL-7" value="con = con + 2" style="rounded=0;whiteSpace=wrap;html=1;fillColor=#FFE45E;strokeColor=#FF6392;fontColor=#5AA9E6;" vertex="1" parent="1">
          <mxGeometry x="354" y="320" width="120" height="60" as="geometry" />
        </mxCell>
        <mxCell id="OpxA1rUQGxUV8h2yl8yL-11" style="edgeStyle=orthogonalEdgeStyle;rounded=0;orthogonalLoop=1;jettySize=auto;html=1;entryX=0;entryY=0.5;entryDx=0;entryDy=0;strokeColor=#FF6392;fontColor=#5AA9E6;" edge="1" parent="1" source="OpxA1rUQGxUV8h2yl8yL-9" target="OpxA1rUQGxUV8h2yl8yL-5">
          <mxGeometry relative="1" as="geometry">
            <Array as="points">
              <mxPoint x="274" y="470" />
              <mxPoint x="274" y="245" />
            </Array>
          </mxGeometry>
        </mxCell>
        <mxCell id="OpxA1rUQGxUV8h2yl8yL-9" value="&quot;La serie va en &quot; con" style="shape=document;whiteSpace=wrap;html=1;boundedLbl=1;fillColor=#FFE45E;strokeColor=#FF6392;fontColor=#5AA9E6;" vertex="1" parent="1">
          <mxGeometry x="354" y="440" width="120" height="80" as="geometry" />
        </mxCell>
        <mxCell id="OpxA1rUQGxUV8h2yl8yL-13" value="Fin" style="ellipse;whiteSpace=wrap;html=1;fillColor=#FFE45E;strokeColor=#FF6392;fontColor=#5AA9E6;" vertex="1" parent="1">
          <mxGeometry x="354" y="570" width="120" height="70" as="geometry" />
        </mxCell>
        <mxCell id="OpxA1rUQGxUV8h2yl8yL-15" value="No" style="text;html=1;align=center;verticalAlign=middle;resizable=0;points=[];autosize=1;fontColor=#5AA9E6;" vertex="1" parent="1">
          <mxGeometry x="520" y="410" width="30" height="20" as="geometry" />
        </mxCell>
      </root>
    </mxGraphModel>
  </diagram>
</mxfile>
